<svg id="Layer_1" data-name="Layer 1" xmlns="http://www.w3.org/2000/svg" viewBox="0 0 380 380"><defs><style>.cls-1{fill:#c1272d;stroke-width:0.99px;}.cls-1,.cls-3{stroke:#c1272d;}.cls-1,.cls-2,.cls-3{stroke-miterlimit:10;}.cls-2,.cls-3{fill:none;}.cls-2{stroke:#1a1a1a;stroke-width:27.68px;}.cls-3{stroke-width:27.68px;}</style></defs><path class="cls-1" d="M267.84,246.61c-5.95,0-7.24,7.07-13.71,7.07-13.72,0-4.92-44-43.49-57.63v-1c16.83-3,42.45-17.95,42.45-44.24,0-41.46-42.45-45.08-73-45.5-35-.49-65,.76-70.66,1.26a9.78,9.78,0,0,0-2.59,7.08c0,6.32,3.1,9.6,9.06,9.6h9.57L157.32,122c52.54-6.07,61.6,10.62,61.6,29.07,0,23.76-19.67,39.18-61.6,35.64,0,0-16.19-1.75-18.19,5.09-1.06,3.61,1.41,7.69,8,8.79,2.24.37,10.19.79,10.19.79,16.83,0,26.66.5,33.91,4.29,29,15.17,12.42,68.76,51.77,68.76,19.41,0,30.54-11.63,30.54-21C273.54,249.13,271.21,246.61,267.84,246.61Z"/><circle class="cls-2" cx="190.19" cy="190.14" r="152.5"/><path class="cls-3" d="M37.69,189.66c0-84,68.28-152.16,152.5-152.16s152.5,68.12,152.5,152.16"/></svg>